<?xml version="1.0" encoding="UTF-8"?>
<svg xmlns="http://www.w3.org/2000/svg" xmlns:xlink="http://www.w3.org/1999/xlink" width="110px" height="110px" viewBox="0 0 110 110" version="1.1">
<g id="surface1">
<path style=" stroke:none;fill-rule:nonzero;fill:rgb(0%,0%,0%);fill-opacity:1;" d="M 38.828125 7.554688 C 38.351562 7.808594 37.546875 8.066406 37.035156 8.066406 C 35.933594 8.066406 33.660156 8.835938 32.964844 9.421875 C 32.671875 9.644531 31.570312 10.265625 30.507812 10.78125 C 29.441406 11.328125 28.671875 11.917969 28.785156 12.101562 C 28.929688 12.320312 28.527344 12.761719 27.902344 13.125 C 27.28125 13.457031 26.765625 13.933594 26.765625 14.152344 C 26.765625 14.375 26.511719 14.777344 26.214844 15.035156 C 25.921875 15.289062 25.703125 15.691406 25.703125 15.914062 C 25.738281 16.132812 25.703125 16.574219 25.59375 16.867188 C 25.261719 17.785156 24.566406 22.074219 24.53125 23.648438 C 24.457031 25.410156 24.566406 25.777344 26.472656 29.589844 C 27.574219 31.714844 28.160156 32.488281 28.527344 32.339844 C 28.964844 32.191406 29.039062 32.414062 28.894531 33.292969 C 28.820312 33.917969 28.894531 34.503906 29.078125 34.578125 C 29.296875 34.648438 29.441406 35.492188 29.40625 36.484375 C 29.40625 37.65625 29.625 38.609375 30.03125 39.234375 C 30.652344 40.113281 31.644531 43.304688 31.351562 43.558594 C 31.277344 43.632812 30.652344 42.644531 29.921875 41.324219 C 27.976562 37.875 26.949219 33.988281 27.828125 33.660156 C 28.011719 33.585938 27.941406 33.328125 27.683594 33.109375 C 27.28125 32.742188 27.132812 32.964844 26.914062 34.320312 C 26.691406 35.859375 26.839844 36.335938 28.417969 39.488281 C 29.371094 41.359375 30.507812 43.191406 30.945312 43.558594 C 31.386719 43.890625 32.046875 44.953125 32.414062 45.90625 C 33.148438 47.886719 36.007812 50.671875 37.875 51.296875 C 38.902344 51.625 39.195312 52.03125 39.746094 53.644531 C 40.113281 54.671875 40.808594 56.246094 41.285156 57.089844 C 41.761719 57.933594 42.167969 58.777344 42.167969 58.960938 C 42.167969 59.328125 37.144531 62.441406 35.125 63.324219 C 32.082031 64.679688 26.472656 69.59375 25.226562 72.050781 C 23.941406 74.507812 23.429688 77.21875 22.328125 86.898438 C 21.964844 90.125 22.109375 99.257812 22.585938 103.398438 C 23.027344 107.398438 23.613281 110 23.980469 109.890625 C 24.199219 109.78125 24.347656 109.558594 24.308594 109.375 C 24.273438 109.15625 24.125 108.535156 24.015625 107.945312 C 23.101562 103.65625 22.660156 88.183594 23.320312 83.746094 C 23.613281 81.765625 24.015625 81.914062 24.308594 84.113281 C 24.566406 85.800781 26.363281 90.714844 26.65625 90.457031 C 26.730469 90.347656 26.398438 89.285156 25.886719 88.109375 C 24.199219 84.078125 23.796875 78.648438 24.898438 74.984375 C 25.152344 74.140625 25.261719 74.726562 25.261719 77.550781 C 25.335938 82.757812 25.628906 84.039062 29.699219 95.882812 C 30.324219 97.679688 30.984375 99.441406 31.167969 99.769531 C 31.3125 100.101562 31.679688 101.421875 31.898438 102.703125 C 32.449219 105.636719 33.734375 110.109375 33.953125 109.890625 C 34.0625 109.816406 33.953125 109.304688 33.769531 108.828125 C 33.585938 108.3125 33.074219 106.222656 32.632812 104.132812 C 32.15625 102.078125 31.019531 98.15625 30.03125 95.480469 C 29.039062 92.765625 28.234375 90.015625 28.234375 89.355469 C 28.234375 88.585938 28.125 88.367188 27.902344 88.660156 C 27.71875 88.953125 27.316406 88 26.730469 85.910156 C 25.996094 83.234375 25.851562 81.839844 25.851562 77.695312 L 25.851562 72.710938 L 27.316406 70.914062 C 29.148438 68.675781 31.9375 66 32.488281 66 C 32.707031 66 33.148438 65.742188 33.402344 65.414062 C 33.878906 64.828125 35.125 64.203125 35.601562 64.3125 C 35.75 64.3125 36.191406 64.019531 36.628906 63.652344 C 37.070312 63.25 37.730469 62.773438 38.097656 62.554688 C 38.464844 62.332031 39.125 61.929688 39.5625 61.671875 L 40.371094 61.195312 L 39.746094 62.40625 C 39.011719 63.835938 39.011719 66.367188 39.785156 67.832031 C 40.332031 68.898438 41.617188 69.996094 45.027344 72.378906 L 46.96875 73.738281 L 49.609375 71.464844 C 52.285156 69.152344 55.878906 65.449219 60.097656 60.5 C 63.25 56.871094 67.6875 52.433594 68.273438 52.398438 C 69.667969 52.285156 71.171875 52.578125 73.148438 53.351562 C 74.359375 53.828125 75.972656 54.304688 76.707031 54.414062 C 81.214844 55.109375 82.683594 55.84375 80.335938 56.246094 C 76.375 56.871094 73.113281 60.171875 71.242188 65.375 C 69.960938 68.933594 69.886719 73.738281 71.058594 77.734375 C 72.234375 81.691406 74.945312 88.21875 76.046875 89.648438 C 77 90.859375 77 90.933594 77.035156 97.972656 C 77.074219 101.859375 77.183594 105.417969 77.292969 105.894531 C 77.441406 106.371094 77.511719 102.226562 77.476562 96.726562 C 77.402344 87.121094 77.511719 85.617188 78.871094 73.371094 C 79.054688 71.648438 79.347656 69.703125 79.53125 69.042969 C 79.714844 68.382812 79.75 67.832031 79.566406 67.832031 C 79.238281 67.832031 78.941406 69.300781 78.464844 73.515625 C 78.285156 75.128906 77.878906 78.832031 77.550781 81.765625 C 77.21875 84.699219 77.074219 87.890625 77.183594 88.917969 L 77.441406 90.75 L 76.265625 89.171875 C 75.058594 87.558594 73.773438 84.515625 71.792969 78.648438 C 68.898438 69.996094 71.535156 60.71875 77.808594 57.601562 C 80.738281 56.101562 82.207031 56.136719 83.785156 57.640625 C 84.480469 58.261719 84.921875 58.960938 84.808594 59.144531 C 84.699219 59.363281 84.773438 59.398438 84.992188 59.253906 C 85.25 59.105469 85.433594 59.144531 85.433594 59.289062 C 85.433594 59.472656 85.984375 60.171875 86.644531 60.902344 C 87.265625 61.601562 88.148438 62.773438 88.511719 63.507812 C 88.917969 64.238281 89.355469 64.789062 89.464844 64.714844 C 89.613281 64.644531 90.457031 65.851562 91.410156 67.394531 C 92.363281 68.933594 93.132812 70.035156 93.132812 69.851562 C 93.132812 69.667969 93.683594 70.398438 94.378906 71.5 L 95.589844 73.515625 L 95.441406 77.917969 C 95.113281 88.511719 95.222656 95.1875 95.738281 97.496094 C 96.140625 99.257812 97.570312 106.699219 97.679688 107.617188 C 97.863281 108.898438 98.304688 110 98.671875 110 C 98.890625 110 98.964844 109.707031 98.851562 109.339844 C 98.742188 109.011719 98.414062 107.25 98.121094 105.417969 C 97.828125 103.582031 97.203125 99.988281 96.761719 97.386719 C 96.066406 93.242188 95.992188 91.8125 96.214844 86.386719 C 96.324219 82.941406 96.542969 78.761719 96.652344 77.109375 C 96.875 74.140625 96.875 74.101562 95.554688 71.976562 C 94.785156 70.804688 93.316406 68.601562 92.214844 67.101562 C 91.117188 65.597656 89.90625 63.875 89.578125 63.285156 C 87.964844 60.683594 84.625 56.90625 82.792969 55.625 C 81.253906 54.597656 80.078125 54.121094 77.878906 53.714844 C 76.304688 53.386719 74.101562 52.726562 73.003906 52.214844 C 71.316406 51.441406 70.472656 51.296875 68.125 51.371094 C 65.121094 51.441406 65.011719 51.40625 62.773438 49.351562 C 61.050781 47.738281 60.648438 46.824219 60.171875 43.121094 C 59.914062 41.324219 59.621094 39.378906 59.511719 38.867188 C 59.363281 38.097656 59.472656 37.839844 60.058594 37.691406 C 60.609375 37.546875 60.902344 36.886719 61.378906 34.832031 C 62.371094 30.398438 61.964844 26.328125 60.464844 25.484375 C 60.058594 25.261719 60.023438 25.300781 60.425781 25.703125 C 60.941406 26.253906 61.011719 26.914062 60.5 26.582031 C 60.316406 26.472656 60.390625 26.914062 60.648438 27.574219 C 61.527344 29.664062 61.636719 32.265625 60.941406 34.832031 C 60.425781 36.777344 60.171875 37.253906 59.511719 37.328125 C 58.851562 37.4375 58.667969 37.214844 58.484375 36.191406 C 58.261719 35.164062 58.410156 34.796875 59.363281 33.769531 C 60.535156 32.488281 60.792969 31.238281 60.058594 30.507812 C 59.328125 29.773438 58.886719 30.03125 59.546875 30.761719 C 60.316406 31.605469 60.132812 32.488281 58.960938 33.734375 C 58.191406 34.578125 58.152344 34.578125 57.898438 33.84375 C 57.492188 32.707031 58.191406 27.941406 59.070312 26.144531 C 59.765625 24.675781 59.804688 24.308594 59.4375 21.523438 C 59.179688 19.578125 58.777344 18.148438 58.261719 17.488281 C 57.714844 16.757812 57.566406 16.171875 57.75 15.363281 C 58.117188 13.75 56.761719 11.21875 54.742188 9.863281 C 52.652344 8.398438 48.839844 7.1875 48.144531 7.773438 C 47.8125 8.03125 47.519531 8.03125 47.117188 7.699219 C 46.824219 7.480469 46.421875 7.371094 46.199219 7.515625 C 46.015625 7.625 45.832031 7.589844 45.832031 7.371094 C 45.832031 6.820312 39.855469 7.003906 38.828125 7.554688 Z M 45.285156 8.761719 C 45.210938 8.945312 45.796875 9.019531 46.640625 8.984375 C 48.035156 8.910156 50.085938 9.679688 51.148438 10.671875 C 51.332031 10.851562 51.808594 11 52.175781 11 C 53.972656 11 56.871094 13.382812 56.832031 14.851562 C 56.832031 15.035156 56.539062 14.777344 56.210938 14.226562 C 55.625 13.273438 54.707031 12.648438 54.375 12.980469 C 54.304688 13.054688 54.671875 13.601562 55.183594 14.226562 C 55.695312 14.8125 56.171875 15.875 56.246094 16.535156 C 56.320312 17.195312 56.578125 17.820312 56.796875 17.894531 C 57.347656 18.078125 58.738281 20.828125 58.558594 21.375 C 58.484375 21.632812 58.226562 21.191406 57.96875 20.421875 C 57.714844 19.691406 57.347656 19.066406 57.164062 19.066406 C 56.648438 19.066406 56.761719 19.691406 57.53125 21.191406 C 58.300781 22.769531 58.886719 24.933594 58.375 24.382812 C 58.191406 24.164062 57.75 23.246094 57.382812 22.292969 C 57.015625 21.339844 56.464844 20.535156 56.101562 20.421875 C 55.441406 20.238281 55.292969 20.972656 55.917969 21.523438 C 56.0625 21.671875 56.101562 21.597656 55.953125 21.339844 C 55.808594 21.121094 55.878906 20.898438 56.0625 20.898438 C 56.285156 20.898438 56.464844 21.414062 56.464844 22 C 56.464844 22.660156 56.648438 23.0625 56.90625 23.027344 C 57.164062 22.953125 57.382812 23.0625 57.382812 23.285156 C 57.421875 23.464844 57.566406 23.90625 57.714844 24.238281 C 58.042969 24.96875 57.308594 26.875 56.832031 26.582031 C 56.648438 26.472656 56.464844 26.035156 56.464844 25.59375 C 56.464844 24.75 55.367188 22.734375 54.890625 22.734375 C 54.742188 22.734375 54.671875 22.585938 54.78125 22.402344 C 54.890625 22.21875 54.707031 21.78125 54.339844 21.375 C 54.011719 21.011719 53.863281 20.898438 54.046875 21.15625 C 54.230469 21.449219 54.265625 21.742188 54.121094 21.890625 C 53.863281 22.148438 53.496094 21.707031 51.664062 19.140625 L 50.5625 17.5625 L 48.65625 17.785156 C 47.59375 17.929688 45.578125 18.078125 44.148438 18.148438 C 41.066406 18.332031 39.160156 18.921875 39.964844 19.433594 C 40.40625 19.726562 40.371094 19.800781 39.710938 19.800781 C 39.269531 19.800781 38.609375 19.910156 38.242188 20.019531 C 37.691406 20.203125 37.65625 20.167969 38.132812 19.800781 C 38.609375 19.433594 38.574219 19.398438 38.023438 19.578125 C 37.65625 19.691406 36.484375 19.800781 35.457031 19.835938 L 33.550781 19.875 L 35.015625 20.351562 C 36.484375 20.828125 36.445312 20.828125 33.257812 20.863281 C 31.203125 20.898438 30.101562 21.046875 30.25 21.265625 C 30.359375 21.449219 31.09375 21.632812 31.828125 21.671875 L 33.183594 21.707031 L 32.082031 22.035156 C 30.542969 22.511719 26.398438 22.511719 25.921875 22.035156 C 25.628906 21.742188 26.144531 21.632812 27.71875 21.632812 C 29.1875 21.632812 29.699219 21.523438 29.332031 21.304688 C 29.039062 21.082031 28.671875 21.046875 28.527344 21.121094 C 28.125 21.375 26.765625 20.9375 26.765625 20.535156 C 26.765625 20.351562 27.71875 20.277344 28.894531 20.351562 C 30.324219 20.460938 30.761719 20.421875 30.25 20.203125 C 29.847656 20.019531 28.964844 19.835938 28.34375 19.835938 C 27.683594 19.800781 27.132812 19.617188 27.132812 19.398438 C 27.132812 19.175781 26.875 19.066406 26.582031 19.214844 C 25.703125 19.542969 25.960938 19.140625 27.058594 18.515625 C 27.609375 18.1875 27.792969 18.003906 27.464844 18.113281 C 26.988281 18.222656 26.914062 18.113281 27.058594 17.527344 C 27.242188 16.792969 27.867188 16.757812 29.441406 17.417969 C 29.808594 17.5625 30.066406 17.527344 30.066406 17.308594 C 30.066406 17.085938 29.773438 16.828125 29.441406 16.757812 C 29.078125 16.648438 29.480469 16.574219 30.324219 16.535156 C 31.167969 16.535156 31.9375 16.351562 32.046875 16.171875 C 32.339844 15.730469 29.371094 15.730469 28.5625 16.171875 C 28.160156 16.390625 27.828125 16.390625 27.683594 16.171875 C 27.390625 15.621094 28.746094 15.035156 30.25 15.035156 C 31.605469 15.035156 34.0625 15.949219 34.539062 16.648438 C 34.6875 16.867188 35.347656 17.050781 36.007812 17.085938 C 36.667969 17.125 37.949219 17.234375 38.867188 17.378906 C 39.785156 17.488281 40.261719 17.488281 39.964844 17.378906 C 39.671875 17.269531 38.867188 16.941406 38.207031 16.609375 C 37.546875 16.316406 36.375 15.988281 35.640625 15.875 C 34.90625 15.730469 33.953125 15.4375 33.550781 15.214844 C 33.148438 14.960938 32.15625 14.628906 31.386719 14.484375 C 30.578125 14.335938 29.589844 14.007812 29.1875 13.714844 C 28.488281 13.238281 28.601562 13.199219 30.359375 13.199219 C 31.386719 13.199219 32.265625 13.308594 32.265625 13.457031 C 32.265625 13.96875 35.492188 15.070312 36.558594 14.921875 C 37.4375 14.8125 37.363281 14.777344 36.226562 14.703125 C 35.492188 14.703125 34.761719 14.484375 34.613281 14.261719 C 34.464844 14.007812 34.578125 13.898438 34.871094 14.007812 C 35.164062 14.117188 35.601562 13.933594 35.859375 13.601562 C 36.152344 13.273438 36.261719 13.199219 36.152344 13.457031 C 36.007812 13.675781 36.078125 13.96875 36.300781 14.117188 C 36.484375 14.226562 36.667969 14.191406 36.667969 13.96875 C 36.667969 13.785156 36.921875 13.566406 37.253906 13.492188 C 37.546875 13.421875 37.214844 13.199219 36.484375 12.980469 C 35.382812 12.648438 35.199219 12.648438 35.347656 13.054688 C 35.566406 13.640625 34.980469 13.75 34.648438 13.199219 C 34.539062 12.980469 34.136719 12.871094 33.808594 12.871094 C 33.257812 12.90625 33.257812 12.941406 33.84375 13.089844 C 34.171875 13.164062 34.464844 13.382812 34.464844 13.566406 C 34.464844 13.96875 33.292969 13.640625 31.644531 12.796875 L 30.285156 12.101562 L 31.460938 11.878906 C 32.082031 11.734375 32.523438 11.476562 32.414062 11.292969 C 32.046875 10.707031 35.125 11.328125 36.667969 12.136719 C 37.398438 12.503906 38.425781 12.871094 38.941406 12.90625 C 39.527344 12.941406 39.820312 13.164062 39.710938 13.457031 C 39.5625 13.785156 39.894531 13.933594 40.738281 13.898438 C 41.507812 13.859375 41.726562 13.785156 41.285156 13.675781 C 40.664062 13.53125 40.738281 13.421875 41.691406 13.015625 C 42.351562 12.722656 43.15625 12.578125 43.523438 12.648438 C 45.429688 13.015625 46.933594 13.125 46.75 12.832031 C 46.640625 12.648438 46.859375 12.464844 47.191406 12.355469 C 47.667969 12.246094 47.375 11.988281 46.199219 11.402344 C 45.285156 10.964844 43.964844 10.304688 43.265625 9.898438 C 42.570312 9.535156 41.652344 9.167969 41.25 9.167969 C 40.847656 9.128906 40.1875 8.984375 39.820312 8.835938 C 39.417969 8.691406 40.480469 8.542969 42.3125 8.507812 C 44.035156 8.507812 45.394531 8.617188 45.285156 8.761719 Z M 39.601562 9.570312 C 39.160156 9.863281 39.234375 9.898438 39.894531 9.714844 C 40.332031 9.570312 41.324219 9.679688 42.09375 9.9375 C 43.707031 10.449219 46.347656 12.0625 46.089844 12.355469 C 45.980469 12.464844 45.503906 12.285156 45.027344 11.953125 C 43.925781 11.148438 42.863281 11.148438 43.851562 11.953125 C 44.257812 12.285156 44.328125 12.429688 44 12.320312 C 43.707031 12.210938 42.753906 11.917969 41.910156 11.660156 C 41.03125 11.402344 40.332031 11.109375 40.332031 10.964844 C 40.332031 10.816406 39.636719 10.558594 38.792969 10.449219 C 37.914062 10.339844 36.886719 10.15625 36.484375 10.082031 C 36.078125 10.011719 35.601562 9.9375 35.382812 9.898438 C 34.539062 9.789062 36.410156 9.351562 38.207031 9.238281 C 39.671875 9.167969 40.003906 9.238281 39.601562 9.570312 Z M 37.875 10.597656 C 38.242188 10.632812 38.425781 10.78125 38.316406 11 C 38.207031 11.21875 38.351562 11.257812 38.683594 11.148438 C 39.011719 11 39.636719 11.074219 40.078125 11.257812 C 40.515625 11.476562 41.285156 11.808594 41.800781 12.027344 C 42.605469 12.355469 42.535156 12.394531 41.25 12.285156 C 40.441406 12.210938 39.085938 12.136719 38.242188 12.136719 C 37.214844 12.101562 36.703125 11.953125 36.777344 11.660156 C 36.8125 11.441406 36.191406 11.035156 35.382812 10.742188 L 33.917969 10.265625 L 35.566406 10.449219 C 36.484375 10.523438 37.511719 10.597656 37.875 10.597656 Z M 52.140625 22.625 C 52.578125 23.101562 53.128906 23.464844 53.386719 23.464844 C 54.230469 23.464844 54.925781 24.53125 55.183594 26.253906 C 55.328125 27.207031 55.769531 29.078125 56.210938 30.398438 C 56.613281 31.714844 56.941406 32.925781 56.90625 33.074219 C 56.871094 33.257812 56.980469 33.367188 57.164062 33.367188 C 57.714844 33.367188 58.335938 36.667969 58.558594 40.808594 C 58.703125 43.375 58.628906 43.816406 57.75 45.285156 C 57.238281 46.199219 56.464844 47.117188 56.0625 47.335938 C 55.660156 47.558594 55.402344 47.8125 55.511719 47.960938 C 55.808594 48.253906 57.457031 46.640625 58.375 45.136719 C 58.996094 44.148438 59.144531 43.375 59.105469 41.507812 C 59.035156 38.574219 59.253906 38.648438 59.546875 41.617188 C 60.207031 47.484375 61.050781 49.207031 64.386719 51.222656 L 65.558594 51.921875 L 61.160156 56.464844 C 58.777344 58.996094 56.320312 61.527344 55.769531 62.148438 C 55.21875 62.738281 53.863281 64.09375 52.761719 65.082031 C 51.664062 66.109375 50.085938 67.6875 49.207031 68.675781 C 47.042969 71.058594 46.347656 70.988281 43.449219 68.089844 C 40.699219 65.339844 40.222656 63.910156 41.285156 61.710938 C 42.058594 60.207031 42.789062 59.765625 43.082031 60.648438 C 43.191406 60.976562 43.339844 61.488281 43.449219 61.820312 C 43.558594 62.148438 43.742188 62.332031 43.851562 62.222656 C 44 62.113281 43.046875 59.839844 41.800781 57.164062 C 40.078125 53.460938 39.671875 52.25 40.003906 52.03125 C 40.371094 51.808594 40.332031 51.664062 39.785156 51.480469 C 34.871094 49.71875 33.035156 47.703125 31.714844 42.535156 C 30.398438 37.253906 30.398438 37.253906 30.03125 37.804688 C 29.773438 38.171875 29.738281 38.058594 29.882812 37.398438 C 29.992188 36.886719 29.957031 35.164062 29.738281 33.550781 C 29.40625 30.910156 29.738281 27.683594 30.652344 24.273438 C 30.875 23.503906 33.808594 22.402344 35.457031 22.476562 C 36.921875 22.511719 39.785156 21.523438 40.515625 20.679688 C 40.882812 20.238281 45.101562 19.324219 45.394531 19.578125 C 45.722656 19.910156 43.558594 20.972656 42.128906 21.15625 C 40.957031 21.339844 40.738281 21.449219 41.214844 21.707031 C 42.058594 22.183594 44.035156 21.488281 45.101562 20.351562 C 45.980469 19.398438 47.191406 19.066406 46.714844 19.875 C 46.492188 20.238281 46.566406 20.238281 47.007812 19.875 C 47.375 19.578125 47.628906 19.542969 47.738281 19.800781 C 47.8125 20.019531 48.328125 19.910156 49.132812 19.507812 L 50.417969 18.882812 L 50.855469 20.3125 C 51.113281 21.121094 51.699219 22.148438 52.140625 22.625 Z M 29.515625 24.015625 C 28.785156 24.601562 28.601562 24.933594 28.964844 24.933594 C 29.699219 25.007812 28.308594 25.59375 27.351562 25.628906 C 26.765625 25.667969 26.765625 25.59375 27.5 25.007812 L 28.34375 24.347656 L 26.949219 24.492188 C 25.996094 24.601562 25.628906 24.53125 25.8125 24.238281 C 25.960938 24.015625 26.621094 23.796875 27.242188 23.796875 L 28.417969 23.761719 L 27.316406 23.464844 C 26.4375 23.246094 26.65625 23.171875 28.417969 23.136719 L 30.617188 23.101562 Z M 28.964844 26.398438 C 28.488281 26.730469 28.488281 26.765625 28.964844 26.765625 C 29.40625 26.804688 29.40625 26.839844 28.894531 27.132812 C 28.5625 27.351562 27.757812 27.390625 27.058594 27.242188 L 25.851562 26.988281 L 26.949219 26.546875 C 28.308594 25.960938 29.808594 25.851562 28.964844 26.398438 Z M 64.386719 55.328125 C 62.699219 57.054688 60.171875 59.804688 58.738281 61.417969 C 51.992188 69.078125 47.667969 73.148438 46.601562 72.785156 C 45.394531 72.417969 40.921875 68.933594 40.222656 67.832031 C 39.746094 67.101562 39.601562 66.257812 39.671875 65.011719 L 39.785156 63.25 L 40.441406 65.15625 C 41.542969 68.273438 45.394531 71.5 47.410156 70.988281 C 48.398438 70.765625 49.132812 70.105469 51.371094 67.539062 C 52.101562 66.695312 52.800781 66 52.945312 66 C 53.203125 66 54.707031 64.460938 61.488281 57.308594 C 64.167969 54.488281 66.585938 52.175781 66.917969 52.175781 C 67.246094 52.175781 66.148438 53.535156 64.386719 55.328125 Z M 64.386719 55.328125 "/>
<path style=" stroke:none;fill-rule:nonzero;fill:rgb(0%,0%,0%);fill-opacity:1;" d="M 44.734375 9.714844 C 44.734375 9.789062 45.578125 10.304688 46.566406 10.816406 C 47.59375 11.328125 48.398438 11.953125 48.398438 12.246094 C 48.398438 12.871094 49.351562 13.125 50.785156 12.832031 C 51.847656 12.613281 51.847656 12.613281 51.039062 12.320312 C 50.601562 12.171875 50.34375 11.878906 50.453125 11.660156 C 50.601562 11.402344 50.527344 11.367188 50.269531 11.511719 C 50.050781 11.660156 49.574219 11.585938 49.28125 11.328125 C 48.988281 11.074219 48.289062 10.816406 47.8125 10.78125 C 47.300781 10.707031 46.492188 10.414062 45.980469 10.121094 C 45.101562 9.535156 44.734375 9.386719 44.734375 9.714844 Z M 44.734375 9.714844 "/>
<path style=" stroke:none;fill-rule:nonzero;fill:rgb(0%,0%,0%);fill-opacity:1;" d="M 52.507812 13.308594 C 52.835938 13.566406 53.238281 14.226562 53.386719 14.777344 C 53.605469 15.730469 53.644531 15.730469 54.082031 15.144531 C 54.523438 14.59375 54.449219 14.375 53.828125 13.640625 C 53.386719 13.199219 52.761719 12.832031 52.46875 12.832031 C 51.957031 12.871094 51.957031 12.90625 52.507812 13.308594 Z M 52.507812 13.308594 "/>
<path style=" stroke:none;fill-rule:nonzero;fill:rgb(0%,0%,0%);fill-opacity:1;" d="M 51.808594 14.851562 C 52.652344 16.171875 53.167969 16.464844 53.167969 15.65625 C 53.167969 15.105469 51.808594 13.566406 51.332031 13.566406 C 51.148438 13.566406 51.371094 14.152344 51.808594 14.851562 Z M 51.808594 14.851562 "/>
<path style=" stroke:none;fill-rule:nonzero;fill:rgb(0%,0%,0%);fill-opacity:1;" d="M 43.632812 14.078125 C 43.632812 14.152344 44.074219 14.484375 44.585938 14.851562 C 45.285156 15.289062 45.648438 15.328125 45.980469 15.035156 C 46.347656 14.777344 46.785156 14.777344 47.519531 15.070312 C 48.105469 15.289062 49.058594 15.621094 49.609375 15.804688 C 50.488281 16.058594 50.601562 16.023438 50.234375 15.582031 C 50.011719 15.289062 49.28125 14.921875 48.65625 14.703125 C 47.445312 14.335938 43.632812 13.859375 43.632812 14.078125 Z M 43.632812 14.078125 "/>
<path style=" stroke:none;fill-rule:nonzero;fill:rgb(0%,0%,0%);fill-opacity:1;" d="M 50.417969 15.035156 C 51.1875 15.621094 51.921875 16.132812 52.03125 16.132812 C 52.433594 16.097656 49.867188 13.933594 49.425781 13.933594 C 49.207031 13.933594 49.648438 14.410156 50.417969 15.035156 Z M 50.417969 15.035156 "/>
<path style=" stroke:none;fill-rule:nonzero;fill:rgb(0%,0%,0%);fill-opacity:1;" d="M 38.683594 14.667969 C 38.792969 14.851562 39.417969 15.035156 40.003906 15.035156 C 40.664062 15.035156 41.03125 14.886719 40.882812 14.667969 C 40.773438 14.445312 40.148438 14.300781 39.5625 14.300781 C 38.902344 14.300781 38.535156 14.445312 38.683594 14.667969 Z M 38.683594 14.667969 "/>
<path style=" stroke:none;fill-rule:nonzero;fill:rgb(0%,0%,0%);fill-opacity:1;" d="M 38.316406 16.132812 C 40.222656 17.011719 40.738281 17.011719 39.601562 16.132812 C 39.085938 15.730469 38.28125 15.4375 37.765625 15.4375 C 36.960938 15.4375 37.035156 15.546875 38.316406 16.132812 Z M 38.316406 16.132812 "/>
<path style=" stroke:none;fill-rule:nonzero;fill:rgb(0%,0%,0%);fill-opacity:1;" d="M 32.816406 17.085938 C 32.632812 17.125 31.972656 17.269531 31.386719 17.417969 C 30.433594 17.601562 30.398438 17.710938 30.875 18.1875 C 31.167969 18.480469 31.972656 18.773438 32.671875 18.847656 C 33.367188 18.921875 33.550781 18.882812 33.109375 18.808594 C 31.828125 18.554688 32.121094 17.964844 33.367188 18.148438 C 33.988281 18.261719 34.980469 18.40625 35.566406 18.515625 C 36.191406 18.625 36.628906 18.554688 36.484375 18.371094 C 36.375 18.1875 36.484375 17.964844 36.738281 17.855469 C 36.996094 17.785156 36.921875 17.746094 36.558594 17.820312 C 36.191406 17.855469 35.273438 17.710938 34.539062 17.453125 C 33.808594 17.195312 33.035156 17.011719 32.816406 17.085938 Z M 32.816406 17.085938 "/>
<path style=" stroke:none;fill-rule:nonzero;fill:rgb(0%,0%,0%);fill-opacity:1;" d="M 29.078125 19.214844 C 29.847656 19.507812 31.09375 19.835938 31.828125 19.945312 C 33.035156 20.128906 33.074219 20.09375 32.265625 19.761719 C 31.753906 19.542969 31.058594 19.214844 30.726562 19.03125 C 30.359375 18.847656 29.554688 18.699219 28.894531 18.699219 L 27.683594 18.738281 Z M 29.078125 19.214844 "/>
<path style=" stroke:none;fill-rule:nonzero;fill:rgb(0%,0%,0%);fill-opacity:1;" d="M 47.851562 25.886719 C 45.355469 26.4375 42.535156 27.351562 42.535156 27.609375 C 42.535156 28.308594 43.78125 28.234375 46.089844 27.464844 C 47.445312 27.023438 49.351562 26.65625 50.34375 26.65625 C 51.296875 26.65625 52.066406 26.546875 52.066406 26.363281 C 52.066406 26.179688 51.625 26.035156 51.078125 26.035156 C 50.488281 26.035156 49.71875 25.960938 49.316406 25.886719 C 48.914062 25.8125 48.253906 25.8125 47.851562 25.886719 Z M 47.851562 25.886719 "/>
<path style=" stroke:none;fill-rule:nonzero;fill:rgb(0%,0%,0%);fill-opacity:1;" d="M 35.382812 28.855469 C 33.734375 28.964844 32.890625 29.222656 31.972656 29.957031 C 30.617188 30.984375 30.617188 31.605469 31.972656 30.652344 C 32.523438 30.25 33.625 30.066406 35.457031 30.066406 C 37.730469 30.066406 38.171875 29.957031 38.5 29.332031 C 38.828125 28.710938 38.792969 28.601562 38.242188 28.671875 C 37.875 28.710938 36.59375 28.785156 35.382812 28.855469 Z M 35.382812 28.855469 "/>
<path style=" stroke:none;fill-rule:nonzero;fill:rgb(0%,0%,0%);fill-opacity:1;" d="M 47.117188 28.855469 C 45.613281 29.1875 44.402344 29.773438 44.21875 30.324219 C 44 30.800781 44.367188 30.835938 46.824219 30.617188 C 50.488281 30.285156 51.589844 29.882812 50.964844 29.148438 C 50.527344 28.636719 48.765625 28.488281 47.117188 28.855469 Z M 47.117188 28.855469 "/>
<path style=" stroke:none;fill-rule:nonzero;fill:rgb(0%,0%,0%);fill-opacity:1;" d="M 40.003906 31.898438 C 40.003906 32.414062 39.488281 33.734375 38.867188 34.832031 C 38.28125 35.933594 37.804688 37.214844 37.765625 37.65625 C 37.765625 38.464844 38.71875 39.234375 39.671875 39.234375 C 39.929688 39.195312 39.710938 38.941406 39.160156 38.648438 C 37.875 37.949219 37.875 37.621094 39.269531 34.941406 C 39.964844 33.625 40.332031 32.414062 40.222656 31.863281 L 40.078125 30.984375 Z M 40.003906 31.898438 "/>
<path style=" stroke:none;fill-rule:nonzero;fill:rgb(0%,0%,0%);fill-opacity:1;" d="M 35.199219 31.9375 C 33.660156 32.414062 32.742188 33.148438 33.328125 33.511719 C 33.550781 33.660156 33.734375 33.625 33.734375 33.402344 C 33.734375 33.183594 34.0625 32.851562 34.464844 32.632812 C 34.90625 32.414062 35.199219 32.375 35.199219 32.597656 C 35.199219 32.78125 34.90625 33.035156 34.578125 33.109375 C 34.027344 33.257812 34.0625 33.292969 34.6875 33.328125 C 35.785156 33.402344 37.804688 32.632812 37.546875 32.230469 C 37.4375 32.046875 37.621094 31.898438 37.949219 31.898438 C 38.28125 31.898438 38.425781 32.046875 38.316406 32.265625 C 38.207031 32.449219 38.351562 32.632812 38.683594 32.632812 C 39.011719 32.632812 39.234375 32.414062 39.160156 32.15625 C 38.941406 31.605469 36.851562 31.460938 35.199219 31.9375 Z M 35.199219 31.9375 "/>
<path style=" stroke:none;fill-rule:nonzero;fill:rgb(0%,0%,0%);fill-opacity:1;" d="M 37.214844 33.734375 C 37.105469 33.917969 36.519531 34.101562 35.898438 34.101562 C 35.308594 34.101562 34.832031 34.246094 34.832031 34.464844 C 34.832031 34.648438 35.015625 34.832031 35.199219 34.832031 C 35.75 34.832031 38.132812 33.808594 38.132812 33.585938 C 38.132812 33.21875 37.472656 33.328125 37.214844 33.734375 Z M 37.214844 33.734375 "/>
<path style=" stroke:none;fill-rule:nonzero;fill:rgb(0%,0%,0%);fill-opacity:1;" d="M 45.027344 35.089844 C 46.015625 35.785156 46.054688 36.558594 45.210938 37.511719 C 44.585938 38.207031 44.585938 38.242188 45.320312 37.839844 C 46.53125 37.214844 46.714844 36.300781 45.796875 35.308594 C 45.320312 34.871094 44.808594 34.464844 44.585938 34.503906 C 44.367188 34.503906 44.550781 34.761719 45.027344 35.089844 Z M 45.027344 35.089844 "/>
<path style=" stroke:none;fill-rule:nonzero;fill:rgb(0%,0%,0%);fill-opacity:1;" d="M 43.375 37.035156 C 42.898438 37.214844 42.535156 37.511719 42.535156 37.691406 C 42.535156 38.207031 44.292969 37.765625 44.511719 37.179688 C 44.734375 36.59375 44.511719 36.558594 43.375 37.035156 Z M 43.375 37.035156 "/>
<path style=" stroke:none;fill-rule:nonzero;fill:rgb(0%,0%,0%);fill-opacity:1;" d="M 42.3125 41.03125 C 41.03125 41.359375 40.625 41.578125 38.902344 42.863281 L 37.65625 43.816406 L 39.085938 44.074219 C 41.726562 44.550781 43.414062 44.367188 45.429688 43.449219 C 46.53125 42.9375 47.335938 42.460938 47.226562 42.351562 C 47.152344 42.277344 46.421875 42.496094 45.613281 42.898438 C 43.816406 43.78125 39.671875 44.257812 40.296875 43.523438 C 40.882812 42.789062 43.523438 42.09375 45.941406 41.984375 C 48.214844 41.910156 49.867188 41.066406 47.777344 41.066406 C 47.191406 41.066406 45.941406 40.992188 45.0625 40.921875 C 44.183594 40.808594 42.9375 40.882812 42.3125 41.03125 Z M 45.101562 41.398438 C 44.808594 41.578125 43.890625 41.835938 43.082031 41.984375 C 42.3125 42.09375 41.03125 42.535156 40.261719 42.9375 C 38.574219 43.816406 38.464844 43.597656 40.039062 42.496094 C 41.140625 41.691406 42.898438 41.175781 44.734375 41.101562 C 45.429688 41.101562 45.503906 41.175781 45.101562 41.398438 Z M 45.101562 41.398438 "/>
<path style=" stroke:none;fill-rule:nonzero;fill:rgb(0%,0%,0%);fill-opacity:1;" d="M 49.867188 47.59375 C 49.867188 48.289062 48.289062 49.5 46.859375 49.867188 C 44.917969 50.417969 40.773438 50.378906 40.113281 49.828125 C 39.746094 49.5 39.601562 49.5 39.601562 49.828125 C 39.601562 51.554688 47.152344 51.078125 49.242188 49.207031 C 50.160156 48.363281 50.746094 47.300781 50.234375 47.300781 C 50.050781 47.300781 49.867188 47.445312 49.867188 47.59375 Z M 49.867188 47.59375 "/>
<path style=" stroke:none;fill-rule:nonzero;fill:rgb(0%,0%,0%);fill-opacity:1;" d="M 32.191406 79.492188 C 30.46875 82.023438 29.332031 84.078125 29.332031 84.589844 C 29.332031 84.738281 29.808594 84.039062 30.359375 83.050781 C 30.910156 82.023438 32.011719 80.335938 32.78125 79.273438 C 33.550781 78.210938 34.101562 77.257812 34.027344 77.183594 C 33.917969 77.074219 33.109375 78.101562 32.191406 79.492188 Z M 32.191406 79.492188 "/>
<path style=" stroke:none;fill-rule:nonzero;fill:rgb(0%,0%,0%);fill-opacity:1;" d="M 56.210938 77.21875 C 55.953125 77.328125 55.734375 77.84375 55.734375 78.355469 C 55.734375 79.164062 55.84375 79.238281 56.832031 79.015625 L 57.933594 78.761719 L 57.859375 82.023438 C 57.75 87.488281 57.859375 88 58.921875 88 C 59.839844 88 59.875 87.964844 59.65625 85.835938 C 59.511719 84.664062 59.511719 82.574219 59.65625 81.253906 L 59.875 78.832031 L 61.488281 78.832031 C 62.957031 78.832031 63.101562 78.761719 62.992188 77.988281 C 62.882812 77.21875 62.699219 77.183594 59.765625 77.109375 C 58.042969 77.074219 56.429688 77.148438 56.210938 77.21875 Z M 56.210938 77.21875 "/>
<path style=" stroke:none;fill-rule:nonzero;fill:rgb(0%,0%,0%);fill-opacity:1;" d="M 52.140625 78.90625 C 51.882812 79.164062 51.699219 79.53125 51.699219 79.714844 C 51.699219 80.226562 48.070312 88.367188 47.558594 89.027344 C 47.042969 89.6875 47.484375 89.980469 48.546875 89.6875 C 49.171875 89.539062 49.5 89.136719 49.683594 88.328125 C 49.941406 87.265625 50.269531 87.011719 52.324219 86.386719 C 52.984375 86.167969 53.128906 86.3125 53.351562 87.265625 C 53.605469 88.476562 54.265625 88.953125 55.183594 88.585938 C 55.695312 88.402344 55.695312 88.21875 55.257812 87.15625 C 54.964844 86.496094 54.523438 84.261719 54.265625 82.207031 C 53.898438 79.125 53.714844 78.464844 53.203125 78.464844 C 52.875 78.464844 52.398438 78.648438 52.140625 78.90625 Z M 52.945312 83.125 C 53.167969 84.554688 53.128906 84.664062 51.992188 85.03125 C 51.371094 85.25 50.785156 85.359375 50.710938 85.285156 C 50.601562 85.214844 51.003906 84.296875 51.515625 83.234375 C 52.03125 82.171875 52.542969 81.398438 52.578125 81.472656 C 52.652344 81.511719 52.800781 82.28125 52.945312 83.125 Z M 52.945312 83.125 "/>
<path style=" stroke:none;fill-rule:nonzero;fill:rgb(0%,0%,0%);fill-opacity:1;" d="M 46.089844 80.191406 C 45.980469 80.375 45.796875 81.253906 45.6875 82.207031 C 45.394531 84.148438 45.355469 84.222656 43.816406 84.371094 L 42.753906 84.515625 L 42.863281 82.648438 C 42.9375 80.8125 42.9375 80.777344 42.019531 80.921875 C 41.101562 81.105469 41.066406 81.253906 41.066406 83.378906 C 41.066406 84.589844 40.808594 86.421875 40.515625 87.449219 C 39.820312 89.648438 40.078125 92.214844 40.957031 91.886719 C 41.25 91.777344 41.578125 91.667969 41.652344 91.667969 C 41.726562 91.667969 41.800781 90.601562 41.800781 89.285156 C 41.800781 86.753906 41.875 86.679688 44.21875 85.800781 L 45.210938 85.398438 L 45.027344 88 C 44.84375 90.566406 44.917969 90.75 45.980469 90.347656 C 46.421875 90.164062 46.566406 89.613281 46.566406 88 C 46.566406 86.828125 46.824219 84.554688 47.117188 82.976562 C 47.410156 81.398438 47.667969 80.078125 47.667969 80.007812 C 47.667969 79.785156 46.238281 79.96875 46.089844 80.191406 Z M 46.089844 80.191406 "/>
<path style=" stroke:none;fill-rule:nonzero;fill:rgb(0%,0%,0%);fill-opacity:1;" d="M 38.464844 81.875 C 38.171875 82.132812 37.546875 83.820312 37.070312 85.542969 C 35.898438 89.832031 35.492188 89.722656 35.054688 85.140625 C 34.832031 82.792969 34.6875 82.5 33.734375 82.757812 C 33.21875 82.902344 32.78125 83.636719 32.265625 85.324219 C 31.863281 86.644531 31.535156 88.109375 31.535156 88.585938 C 31.535156 89.0625 31.386719 89.464844 31.203125 89.464844 C 30.726562 89.464844 30.398438 86.789062 30.800781 86.386719 C 31.277344 85.910156 31.277344 85.066406 30.761719 85.066406 C 30.25 85.066406 29.332031 87.375 29.332031 88.625 C 29.332031 89.210938 29.625 90.089844 29.957031 90.566406 C 30.324219 91.042969 30.691406 92.105469 30.800781 92.914062 C 30.984375 94.453125 31.644531 95.039062 32.046875 93.976562 C 32.191406 93.648438 32.449219 91.8125 32.632812 89.941406 C 32.78125 88.074219 33.074219 86.351562 33.21875 86.128906 C 33.550781 85.542969 34.796875 89.90625 34.832031 91.777344 C 34.832031 92.988281 34.941406 93.171875 35.601562 93.058594 C 36.117188 92.988281 36.558594 92.511719 36.851562 91.667969 C 37.511719 89.90625 39.527344 83.195312 39.671875 82.351562 C 39.820312 81.472656 39.125 81.214844 38.464844 81.875 Z M 38.464844 81.875 "/>
<path style=" stroke:none;fill-rule:nonzero;fill:rgb(0%,0%,0%);fill-opacity:1;" d="M 80.921875 87.816406 C 80.777344 89.027344 80.152344 92.65625 79.566406 95.882812 C 78.980469 99.109375 78.394531 103.214844 78.285156 105.050781 C 78.136719 106.882812 77.953125 108.753906 77.878906 109.265625 C 77.734375 109.925781 77.769531 110.035156 78.027344 109.632812 C 78.210938 109.339844 78.503906 107.507812 78.648438 105.601562 C 78.761719 103.691406 79.457031 98.851562 80.152344 94.855469 C 80.886719 90.859375 81.398438 87.15625 81.328125 86.605469 C 81.253906 86.019531 81.105469 86.460938 80.921875 87.816406 Z M 80.921875 87.816406 "/>
<path style=" stroke:none;fill-rule:nonzero;fill:rgb(0%,0%,0%);fill-opacity:1;" d="M 36.59375 107.617188 C 35.824219 108.128906 35.015625 108.898438 34.796875 109.375 C 34.394531 110.109375 35.089844 109.558594 37.949219 107.03125 C 38.609375 106.40625 37.914062 106.699219 36.59375 107.617188 Z M 36.59375 107.617188 "/>
</g>
</svg>
